<mxfile host="Electron" agent="Mozilla/5.0 (Windows NT 10.0; Win64; x64) AppleWebKit/537.36 (KHTML, like Gecko) draw.io/28.1.2 Chrome/138.0.7204.243 Electron/37.4.0 Safari/537.36" version="28.1.2">
  <diagram name="Страница — 1" id="y3P5me7hsR_nuK5834CM">
    <mxGraphModel dx="1626" dy="1593" grid="1" gridSize="10" guides="1" tooltips="1" connect="1" arrows="1" fold="1" page="0" pageScale="1" pageWidth="827" pageHeight="1169" math="0" shadow="0">
      <root>
        <mxCell id="0" />
        <mxCell id="1" parent="0" />
        <mxCell id="XghmZHSURcAjfM_Kjg03-5" value="" style="edgeStyle=orthogonalEdgeStyle;rounded=0;orthogonalLoop=1;jettySize=auto;html=1;fontSize=10;" parent="1" source="XghmZHSURcAjfM_Kjg03-1" target="XghmZHSURcAjfM_Kjg03-4" edge="1">
          <mxGeometry relative="1" as="geometry" />
        </mxCell>
        <mxCell id="XghmZHSURcAjfM_Kjg03-19" style="edgeStyle=orthogonalEdgeStyle;rounded=0;orthogonalLoop=1;jettySize=auto;html=1;entryX=0.5;entryY=0;entryDx=0;entryDy=0;" parent="1" source="XghmZHSURcAjfM_Kjg03-1" target="XghmZHSURcAjfM_Kjg03-10" edge="1">
          <mxGeometry relative="1" as="geometry" />
        </mxCell>
        <mxCell id="XghmZHSURcAjfM_Kjg03-1" value="class Item&lt;div&gt;- int Quantity;&lt;/div&gt;&lt;div&gt;- int MaxQuantity;&lt;/div&gt;&lt;div&gt;- int ID;&lt;/div&gt;" style="rounded=1;whiteSpace=wrap;html=1;fontSize=10;" parent="1" vertex="1">
          <mxGeometry x="300" y="80" width="120" height="60" as="geometry" />
        </mxCell>
        <mxCell id="XghmZHSURcAjfM_Kjg03-9" value="" style="edgeStyle=orthogonalEdgeStyle;rounded=0;orthogonalLoop=1;jettySize=auto;html=1;fontSize=10;" parent="1" source="XghmZHSURcAjfM_Kjg03-4" target="XghmZHSURcAjfM_Kjg03-8" edge="1">
          <mxGeometry relative="1" as="geometry" />
        </mxCell>
        <mxCell id="XghmZHSURcAjfM_Kjg03-4" value="class Usable&lt;div&gt;- virtual void Use();&lt;/div&gt;" style="whiteSpace=wrap;html=1;rounded=1;fontSize=10;" parent="1" vertex="1">
          <mxGeometry x="160" y="180" width="120" height="60" as="geometry" />
        </mxCell>
        <mxCell id="XghmZHSURcAjfM_Kjg03-8" value="&lt;div&gt;&lt;span style=&quot;background-color: transparent; color: light-dark(rgb(0, 0, 0), rgb(255, 255, 255));&quot;&gt;class Consumable&lt;/span&gt;&lt;/div&gt;&lt;div&gt;&lt;span style=&quot;background-color: transparent; color: light-dark(rgb(0, 0, 0), rgb(255, 255, 255));&quot;&gt;- override void Use();&lt;/span&gt;&lt;/div&gt;" style="whiteSpace=wrap;html=1;rounded=1;fontSize=10;" parent="1" vertex="1">
          <mxGeometry x="-40" y="180" width="120" height="60" as="geometry" />
        </mxCell>
        <mxCell id="XghmZHSURcAjfM_Kjg03-18" value="" style="edgeStyle=orthogonalEdgeStyle;rounded=0;orthogonalLoop=1;jettySize=auto;html=1;fontSize=10;" parent="1" source="XghmZHSURcAjfM_Kjg03-10" target="XghmZHSURcAjfM_Kjg03-17" edge="1">
          <mxGeometry relative="1" as="geometry" />
        </mxCell>
        <mxCell id="XghmZHSURcAjfM_Kjg03-20" style="edgeStyle=orthogonalEdgeStyle;rounded=0;orthogonalLoop=1;jettySize=auto;html=1;" parent="1" source="XghmZHSURcAjfM_Kjg03-10" target="XghmZHSURcAjfM_Kjg03-12" edge="1">
          <mxGeometry relative="1" as="geometry" />
        </mxCell>
        <mxCell id="XghmZHSURcAjfM_Kjg03-10" value="&lt;font&gt;abstract class Equipable&lt;/font&gt;&lt;div&gt;&lt;font&gt;- int Durability;&lt;/font&gt;&lt;/div&gt;&lt;div&gt;&lt;font&gt;- int MaxDurability;&lt;/font&gt;&lt;/div&gt;&lt;div&gt;&lt;font&gt;- abstract void Equip();&lt;/font&gt;&lt;/div&gt;&lt;div&gt;&lt;font&gt;- int MaxQuantity = 1;&lt;/font&gt;&lt;/div&gt;" style="whiteSpace=wrap;html=1;rounded=1;fontSize=10;" parent="1" vertex="1">
          <mxGeometry x="440" y="180" width="120" height="60" as="geometry" />
        </mxCell>
        <mxCell id="XghmZHSURcAjfM_Kjg03-12" value="&lt;div&gt;&lt;span style=&quot;background-color: transparent; color: light-dark(rgb(0, 0, 0), rgb(255, 255, 255));&quot;&gt;class Tool&lt;/span&gt;&lt;/div&gt;&lt;div&gt;&lt;span style=&quot;background-color: transparent; color: light-dark(rgb(0, 0, 0), rgb(255, 255, 255));&quot;&gt;- ToolType ToolType;&lt;/span&gt;&lt;/div&gt;&lt;div&gt;&lt;span style=&quot;background-color: transparent; color: light-dark(rgb(0, 0, 0), rgb(255, 255, 255));&quot;&gt;- int ToolSpeed;&lt;/span&gt;&lt;/div&gt;&lt;div&gt;&lt;span style=&quot;background-color: transparent; color: light-dark(rgb(0, 0, 0), rgb(255, 255, 255));&quot;&gt;- void ToolUse;&lt;/span&gt;&lt;/div&gt;" style="whiteSpace=wrap;html=1;rounded=1;fontSize=10;" parent="1" vertex="1">
          <mxGeometry x="630" y="230" width="120" height="60" as="geometry" />
        </mxCell>
        <mxCell id="XghmZHSURcAjfM_Kjg03-17" value="class Equipment&lt;div&gt;- EquipmentType EquipmentType;&lt;br&gt;&lt;div&gt;- int Insulation;&lt;/div&gt;&lt;/div&gt;" style="whiteSpace=wrap;html=1;rounded=1;fontSize=10;" parent="1" vertex="1">
          <mxGeometry x="630" y="140" width="120" height="60" as="geometry" />
        </mxCell>
        <mxCell id="XghmZHSURcAjfM_Kjg03-21" value="&lt;font style=&quot;font-size: 10px;&quot;&gt;class Tile&lt;/font&gt;&lt;div&gt;&lt;font style=&quot;font-size: 10px;&quot;&gt;- int x, int y;&lt;/font&gt;&lt;/div&gt;&lt;div&gt;&lt;font style=&quot;font-size: 10px;&quot;&gt;- SnowType SnowType;&lt;/font&gt;&lt;/div&gt;&lt;div&gt;&lt;font style=&quot;font-size: 10px;&quot;&gt;- float SnowPercentage;&lt;/font&gt;&lt;/div&gt;&lt;div&gt;- &lt;font style=&quot;font-size: 10px;&quot;&gt;Object TileObject;&lt;/font&gt;&lt;/div&gt;&lt;div&gt;&lt;font style=&quot;font-size: 10px;&quot;&gt;- float HiddenPercentage;&lt;/font&gt;&lt;/div&gt;&lt;div&gt;&lt;font style=&quot;font-size: 10px;&quot;&gt;- FlooringType FlooringType;&lt;/font&gt;&lt;/div&gt;" style="rounded=1;whiteSpace=wrap;html=1;" parent="1" vertex="1">
          <mxGeometry x="295" y="340" width="130" height="130" as="geometry" />
        </mxCell>
        <mxCell id="XghmZHSURcAjfM_Kjg03-22" value="&lt;font style=&quot;font-size: 10px;&quot;&gt;class Player&lt;/font&gt;&lt;div&gt;&lt;font style=&quot;font-size: 10px;&quot;&gt;- Inventory Inventory;&lt;/font&gt;&lt;/div&gt;&lt;div&gt;&lt;font style=&quot;font-size: 10px;&quot;&gt;- int Health;&lt;/font&gt;&lt;/div&gt;&lt;div&gt;&lt;font style=&quot;font-size: 10px;&quot;&gt;- int MaxHealth;&lt;/font&gt;&lt;/div&gt;&lt;div&gt;&lt;font style=&quot;font-size: 10px;&quot;&gt;- int Hunger;&lt;/font&gt;&lt;/div&gt;&lt;div&gt;&lt;font style=&quot;font-size: 10px;&quot;&gt;- int MaxHunger;&lt;/font&gt;&lt;/div&gt;&lt;div&gt;&lt;font style=&quot;font-size: 10px;&quot;&gt;- int Stamina;&lt;/font&gt;&lt;/div&gt;&lt;div&gt;&lt;font style=&quot;font-size: 10px;&quot;&gt;- int MaxStamina;&lt;/font&gt;&lt;/div&gt;&lt;div&gt;&lt;span style=&quot;font-size: 10px;&quot;&gt;- float Temperature;&lt;/span&gt;&lt;/div&gt;&lt;div&gt;&lt;span style=&quot;font-size: 10px;&quot;&gt;- int Insulation;&lt;/span&gt;&lt;/div&gt;&lt;div&gt;&lt;span style=&quot;font-size: 10px;&quot;&gt;- Tile[] LoadedTiles;&lt;/span&gt;&lt;/div&gt;&lt;div&gt;&lt;span style=&quot;font-size: 10px;&quot;&gt;- AttitudeType PlayerAttitude;&lt;/span&gt;&lt;/div&gt;" style="rounded=1;whiteSpace=wrap;html=1;" parent="1" vertex="1">
          <mxGeometry x="290" y="-320" width="135" height="190" as="geometry" />
        </mxCell>
        <mxCell id="8sWCE-IpWJprR7x98_Ar-1" value="&lt;font style=&quot;font-size: 10px;&quot;&gt;class Object&lt;/font&gt;&lt;div&gt;&lt;font style=&quot;font-size: 10px;&quot;&gt;- ObjectType ObjectType;&lt;/font&gt;&lt;/div&gt;&lt;div&gt;&lt;font style=&quot;font-size: 10px;&quot;&gt;- float AvailablePercentage;&lt;/font&gt;&lt;/div&gt;&lt;div&gt;&lt;font style=&quot;font-size: 10px;&quot;&gt;- int MaterialTier;&lt;/font&gt;&lt;/div&gt;" style="rounded=1;whiteSpace=wrap;html=1;" vertex="1" parent="1">
          <mxGeometry x="530" y="367.5" width="130" height="75" as="geometry" />
        </mxCell>
        <mxCell id="8sWCE-IpWJprR7x98_Ar-2" value="&lt;font style=&quot;font-size: 10px;&quot;&gt;class Inventory&lt;/font&gt;&lt;div&gt;&lt;font style=&quot;font-size: 10px;&quot;&gt;- Slot[] Slots;&lt;/font&gt;&lt;/div&gt;&lt;div&gt;&lt;font style=&quot;font-size: 10px;&quot;&gt;- float QuantityMultiplier;&lt;/font&gt;&lt;/div&gt;" style="rounded=1;whiteSpace=wrap;html=1;" vertex="1" parent="1">
          <mxGeometry x="300" y="-90" width="120" height="60" as="geometry" />
        </mxCell>
        <mxCell id="8sWCE-IpWJprR7x98_Ar-3" value="&lt;font style=&quot;font-size: 10px;&quot;&gt;class CraftingStation&lt;/font&gt;&lt;div&gt;&lt;font style=&quot;font-size: 10px;&quot;&gt;- Inventory Inventory;&lt;/font&gt;&lt;/div&gt;&lt;div&gt;&lt;span style=&quot;font-size: 10px; background-color: transparent; color: light-dark(rgb(0, 0, 0), rgb(255, 255, 255));&quot;&gt;- StationType StationType;&lt;/span&gt;&lt;/div&gt;&lt;div&gt;&lt;div&gt;&lt;font style=&quot;font-size: 10px;&quot;&gt;- int StationTier;&lt;/font&gt;&lt;/div&gt;&lt;/div&gt;" style="rounded=1;whiteSpace=wrap;html=1;" vertex="1" parent="1">
          <mxGeometry x="70" y="367.5" width="120" height="70" as="geometry" />
        </mxCell>
        <mxCell id="8sWCE-IpWJprR7x98_Ar-4" value="&lt;font style=&quot;font-size: 10px;&quot;&gt;class Recipe&lt;/font&gt;&lt;div&gt;&lt;font style=&quot;font-size: 10px;&quot;&gt;- Item[] InputItems;&lt;/font&gt;&lt;/div&gt;&lt;div&gt;&lt;font style=&quot;font-size: 10px;&quot;&gt;- Item[] OutputItems;&lt;/font&gt;&lt;/div&gt;&lt;div&gt;&lt;font style=&quot;font-size: 10px;&quot;&gt;- StationType StationType;&lt;/font&gt;&lt;/div&gt;&lt;div&gt;&lt;font style=&quot;font-size: 10px;&quot;&gt;- int StationTier;&lt;/font&gt;&lt;/div&gt;" style="rounded=1;whiteSpace=wrap;html=1;" vertex="1" parent="1">
          <mxGeometry x="490" y="-100" width="120" height="80" as="geometry" />
        </mxCell>
        <mxCell id="8sWCE-IpWJprR7x98_Ar-5" value="&lt;font size=&quot;1&quot;&gt;class Slot&lt;/font&gt;&lt;div&gt;&lt;font size=&quot;1&quot;&gt;- Item CurrentItem;&lt;/font&gt;&lt;/div&gt;&lt;div&gt;&lt;font size=&quot;1&quot;&gt;- Item[] AcceptableItems;&lt;/font&gt;&lt;/div&gt;" style="rounded=1;whiteSpace=wrap;html=1;" vertex="1" parent="1">
          <mxGeometry x="110" y="-90" width="120" height="60" as="geometry" />
        </mxCell>
        <mxCell id="8sWCE-IpWJprR7x98_Ar-6" value="&lt;font style=&quot;font-size: 10px;&quot;&gt;class WorldController&lt;/font&gt;&lt;div&gt;&lt;span style=&quot;font-size: 10px;&quot;&gt;- int Ticks;&lt;/span&gt;&lt;/div&gt;&lt;div&gt;&lt;span style=&quot;font-size: 10px;&quot;&gt;- float WeatherSeverity;&lt;/span&gt;&lt;/div&gt;&lt;div&gt;&lt;span style=&quot;font-size: 10px;&quot;&gt;- float WorldTemprerature;&lt;/span&gt;&lt;/div&gt;&lt;div&gt;&lt;span style=&quot;font-size: 10px;&quot;&gt;- void OnDayStart();&lt;/span&gt;&lt;/div&gt;" style="rounded=1;whiteSpace=wrap;html=1;" vertex="1" parent="1">
          <mxGeometry x="300" y="-530" width="120" height="100" as="geometry" />
        </mxCell>
        <mxCell id="8sWCE-IpWJprR7x98_Ar-11" value="" style="edgeStyle=orthogonalEdgeStyle;rounded=0;orthogonalLoop=1;jettySize=auto;html=1;" edge="1" parent="1" source="8sWCE-IpWJprR7x98_Ar-8" target="8sWCE-IpWJprR7x98_Ar-10">
          <mxGeometry relative="1" as="geometry" />
        </mxCell>
        <mxCell id="8sWCE-IpWJprR7x98_Ar-8" value="Снег" style="rounded=1;whiteSpace=wrap;html=1;" vertex="1" parent="1">
          <mxGeometry x="1110" y="-160" width="50" height="50" as="geometry" />
        </mxCell>
        <mxCell id="8sWCE-IpWJprR7x98_Ar-13" value="" style="edgeStyle=orthogonalEdgeStyle;rounded=0;orthogonalLoop=1;jettySize=auto;html=1;" edge="1" parent="1" source="8sWCE-IpWJprR7x98_Ar-10" target="8sWCE-IpWJprR7x98_Ar-12">
          <mxGeometry relative="1" as="geometry" />
        </mxCell>
        <mxCell id="8sWCE-IpWJprR7x98_Ar-10" value="Плотный снег" style="rounded=1;whiteSpace=wrap;html=1;" vertex="1" parent="1">
          <mxGeometry x="1110" y="-30" width="50" height="50" as="geometry" />
        </mxCell>
        <mxCell id="8sWCE-IpWJprR7x98_Ar-15" value="" style="edgeStyle=orthogonalEdgeStyle;rounded=0;orthogonalLoop=1;jettySize=auto;html=1;fillColor=#a20025;strokeColor=#6F0000;" edge="1" parent="1" source="8sWCE-IpWJprR7x98_Ar-12" target="8sWCE-IpWJprR7x98_Ar-14">
          <mxGeometry relative="1" as="geometry" />
        </mxCell>
        <mxCell id="8sWCE-IpWJprR7x98_Ar-12" value="Компрессованный снег" style="rounded=1;whiteSpace=wrap;html=1;" vertex="1" parent="1">
          <mxGeometry x="1110" y="100" width="50" height="50" as="geometry" />
        </mxCell>
        <mxCell id="8sWCE-IpWJprR7x98_Ar-17" value="" style="edgeStyle=orthogonalEdgeStyle;rounded=0;orthogonalLoop=1;jettySize=auto;html=1;" edge="1" parent="1" source="8sWCE-IpWJprR7x98_Ar-14" target="8sWCE-IpWJprR7x98_Ar-16">
          <mxGeometry relative="1" as="geometry" />
        </mxCell>
        <mxCell id="8sWCE-IpWJprR7x98_Ar-14" value="Лёд" style="rounded=1;whiteSpace=wrap;html=1;" vertex="1" parent="1">
          <mxGeometry x="1110" y="230" width="50" height="50" as="geometry" />
        </mxCell>
        <mxCell id="8sWCE-IpWJprR7x98_Ar-19" value="" style="edgeStyle=orthogonalEdgeStyle;rounded=0;orthogonalLoop=1;jettySize=auto;html=1;" edge="1" parent="1" source="8sWCE-IpWJprR7x98_Ar-16" target="8sWCE-IpWJprR7x98_Ar-18">
          <mxGeometry relative="1" as="geometry" />
        </mxCell>
        <mxCell id="8sWCE-IpWJprR7x98_Ar-16" value="Плотный лёд" style="rounded=1;whiteSpace=wrap;html=1;" vertex="1" parent="1">
          <mxGeometry x="1110" y="360" width="50" height="50" as="geometry" />
        </mxCell>
        <mxCell id="8sWCE-IpWJprR7x98_Ar-21" value="" style="edgeStyle=orthogonalEdgeStyle;rounded=0;orthogonalLoop=1;jettySize=auto;html=1;fillColor=#a20025;strokeColor=#6F0000;" edge="1" parent="1" source="8sWCE-IpWJprR7x98_Ar-18" target="8sWCE-IpWJprR7x98_Ar-20">
          <mxGeometry relative="1" as="geometry" />
        </mxCell>
        <mxCell id="8sWCE-IpWJprR7x98_Ar-18" value="Синий лёд" style="rounded=1;whiteSpace=wrap;html=1;" vertex="1" parent="1">
          <mxGeometry x="1110" y="490" width="50" height="50" as="geometry" />
        </mxCell>
        <mxCell id="8sWCE-IpWJprR7x98_Ar-20" value="Ледосталь" style="rounded=1;whiteSpace=wrap;html=1;" vertex="1" parent="1">
          <mxGeometry x="1110" y="620" width="50" height="50" as="geometry" />
        </mxCell>
      </root>
    </mxGraphModel>
  </diagram>
</mxfile>
